<svg width="18" height="18" viewBox="0 0 18 18" fill="none" xmlns="http://www.w3.org/2000/svg">
<path d="M5.18774 11.1404L7.43249 8.22368L9.99299 10.2337L12.1897 7.39868" stroke="#727272" stroke-width="1.5" stroke-linecap="round" stroke-linejoin="round"/>
<path fill-rule="evenodd" clip-rule="evenodd" d="M14.7503 1.76251C15.5468 1.76251 16.1918 2.40751 16.1918 3.20401C16.1918 3.99976 15.5468 4.64551 14.7503 4.64551C13.9538 4.64551 13.3088 3.99976 13.3088 3.20401C13.3088 2.40751 13.9538 1.76251 14.7503 1.76251Z" stroke="#727272" stroke-width="1.5" stroke-linecap="round" stroke-linejoin="round"/>
<path d="M15.5667 6.95176C15.6664 7.62301 15.7122 8.37901 15.7122 9.22726C15.7122 14.4308 13.9782 16.1648 8.77466 16.1648C3.57191 16.1648 1.83716 14.4308 1.83716 9.22726C1.83716 4.02451 3.57191 2.28976 8.77466 2.28976C9.60716 2.28976 10.3504 2.33401 11.0119 2.43001" stroke="#727272" stroke-width="1.5" stroke-linecap="round" stroke-linejoin="round"/>
</svg>
